<?xml version="1.0" standalone="no"?>
<!DOCTYPE svg PUBLIC "-//W3C//DTD SVG 20010904//EN"
 "http://www.w3.org/TR/2001/REC-SVG-20010904/DTD/svg10.dtd">
<svg version="1.0" xmlns="http://www.w3.org/2000/svg"
 width="162.000000pt" height="162.000000pt" viewBox="0 0 162.000000 162.000000"
 preserveAspectRatio="xMidYMid meet">
<metadata>
Created by potrace 1.14, written by Peter Selinger 2001-2017
</metadata>
<g transform="translate(0.000000,162.000000) scale(0.100000,-0.100000)"
fill="#000000" stroke="none">
<path d="M823 1375 c-15 -17 -17 -29 -3 -20 13 8 13 -8 -1 -22 -8 -8 -7 -13 2
-18 8 -6 10 -4 4 6 -8 12 -6 12 8 0 19 -15 23 -26 5 -15 -8 5 -9 2 -5 -10 4
-9 3 -15 -2 -11 -5 3 -11 2 -14 -2 -2 -5 -2 -2 0 5 2 8 -2 10 -9 6 -17 -11
-50 -10 -67 1 -10 5 -12 4 -7 -3 4 -7 2 -12 -5 -12 -7 0 -10 -3 -6 -6 3 -4 -4
-15 -16 -25 -12 -10 -17 -18 -10 -19 6 0 13 6 16 13 2 6 7 9 11 6 3 -3 4 -13
1 -21 -4 -11 -18 -15 -45 -14 -22 1 -37 0 -35 -3 3 -2 -1 -11 -8 -19 -9 -13
-9 -14 1 -8 6 4 12 3 12 -3 0 -5 9 -8 21 -6 15 3 19 0 17 -13 -3 -9 -10 -16
-16 -15 -7 2 -12 -2 -12 -7 0 -5 -6 -9 -12 -7 -7 1 -12 -3 -11 -10 1 -6 -5
-10 -14 -9 -17 3 -53 -27 -53 -44 0 -5 -7 -10 -15 -10 -8 0 -15 -3 -14 -7 2
-17 -14 -52 -21 -48 -5 3 -7 -6 -5 -20 1 -17 -3 -25 -14 -25 -14 0 -14 -2 -1
-10 14 -9 7 -15 -14 -11 -5 1 -4 -4 2 -12 9 -10 6 -18 -11 -32 -12 -11 -25
-19 -29 -17 -5 1 -8 -5 -8 -13 0 -8 -5 -15 -11 -15 -6 0 -9 -10 -8 -22 2 -13
-1 -30 -5 -38 -5 -8 -6 -12 -1 -8 8 7 45 -28 45 -42 0 -10 -33 -8 -48 3 -9 7
-11 6 -7 -6 4 -9 1 -15 -7 -14 -32 1 -49 -4 -43 -13 3 -5 -3 -10 -14 -10 -11
0 -23 -5 -27 -12 -4 -7 -3 -8 4 -4 7 4 12 3 12 -1 0 -5 -9 -14 -21 -21 -11 -7
-18 -19 -16 -26 3 -7 -1 -13 -9 -13 -7 0 -11 4 -9 8 3 4 -1 9 -9 12 -10 4 -12
-1 -9 -16 3 -16 2 -18 -5 -8 -6 9 -12 10 -16 3 -4 -6 -22 -10 -41 -8 -20 1
-31 -2 -28 -8 4 -5 -1 -7 -10 -3 -10 4 -17 1 -17 -6 0 -7 -3 -8 -8 -2 -4 6
-13 11 -21 13 -12 3 -12 0 -1 -12 14 -18 15 -18 -21 -20 -15 0 -35 -10 -45
-21 -11 -11 -16 -16 -11 -11 4 6 7 15 7 21 0 5 -5 2 -11 -8 -6 -9 -13 -15 -17
-13 -7 4 -8 -30 -4 -76 1 -10 8 -18 16 -18 8 0 18 -5 22 -12 5 -7 3 -8 -6 -3
-8 5 -11 4 -6 -3 4 -6 14 -8 23 -5 11 4 14 3 9 -5 -4 -7 -1 -12 8 -12 9 0 16
-6 16 -12 0 -9 4 -8 10 2 7 11 10 11 10 2 0 -7 5 -10 10 -7 6 3 10 -2 10 -12
0 -15 2 -16 10 -3 5 8 10 10 10 4 0 -6 15 -11 33 -10 22 1 31 5 29 15 -3 12
-1 12 14 0 10 -8 15 -9 11 -3 -4 7 0 14 8 18 8 3 15 1 15 -4 0 -5 9 -7 20 -5
11 2 23 -1 26 -7 4 -7 2 -8 -4 -4 -7 4 -12 2 -12 -3 0 -6 3 -11 8 -11 4 0 13
-14 21 -31 10 -23 16 -28 22 -18 7 11 9 10 9 -3 0 -13 8 -17 30 -15 16 1 30 4
30 7 0 3 16 5 35 4 19 -1 32 2 29 7 -3 5 3 9 13 9 11 0 24 5 30 11 8 8 13 7
18 -2 5 -7 4 -10 -3 -5 -6 3 -13 3 -16 -2 -2 -4 8 -8 24 -7 15 0 26 3 24 6 -7
11 22 18 36 9 8 -5 22 -4 31 1 12 6 19 5 22 -4 4 -9 6 -8 6 2 1 11 4 11 16 1
12 -10 15 -10 15 0 0 10 3 10 15 0 12 -10 15 -10 15 1 0 11 2 11 10 -1 8 -12
10 -12 10 -1 0 11 3 11 15 1 12 -10 15 -10 15 1 0 11 2 11 9 0 8 -13 12 -13
27 0 11 9 15 9 10 1 -5 -8 1 -12 21 -13 15 -1 31 -1 36 0 4 0 7 -3 7 -7 0 -7
33 -12 97 -15 7 0 10 -4 8 -8 -3 -4 2 -10 11 -13 8 -3 12 -2 9 4 -3 6 1 7 9 4
9 -3 16 -11 16 -16 0 -6 6 -5 15 2 14 11 19 7 16 -13 -1 -4 7 -3 18 2 14 8 22
7 31 -4 7 -8 24 -15 37 -15 16 0 23 -5 20 -12 -6 -18 104 -23 115 -6 6 10 8
10 8 1 0 -7 5 -13 10 -13 6 0 10 7 10 15 0 8 7 15 16 15 8 0 12 4 9 10 -3 5 1
10 10 10 9 0 13 5 10 10 -3 6 -1 10 5 10 7 0 10 7 6 15 -3 8 -2 14 2 14 17 -3
35 2 29 7 -3 4 1 13 9 21 8 8 12 19 8 24 -3 5 0 8 8 7 7 -2 12 3 11 10 -2 6 2
12 7 12 6 0 10 7 10 16 0 8 5 12 10 9 6 -3 10 3 10 15 0 14 4 19 12 14 8 -5 9
-2 5 10 -4 9 -3 15 2 12 5 -3 15 2 22 11 12 14 12 16 -1 8 -13 -8 -13 -6 -1 8
7 9 17 14 22 11 5 -3 6 2 3 10 -4 10 -1 16 7 16 11 0 11 3 -1 10 -11 7 -11 10
-2 10 7 0 10 5 7 10 -4 6 -1 9 7 8 7 -2 12 3 11 10 -2 6 1 12 7 12 5 0 7 6 4
14 -3 7 2 16 10 19 9 4 13 13 10 22 -4 10 0 15 10 15 9 0 16 5 16 11 0 5 -5 7
-11 3 -8 -5 -8 -1 0 14 15 27 14 109 -1 118 -7 5 -8 3 -3 -6 6 -9 4 -11 -4 -6
-7 5 -10 15 -7 23 3 8 1 11 -4 8 -6 -3 -10 -1 -10 5 0 6 -4 9 -9 5 -5 -3 -13
0 -17 6 -4 8 -3 9 4 5 7 -4 12 -2 12 3 0 10 -14 15 -32 12 -5 0 -8 4 -8 9 0 6
-6 10 -14 10 -8 0 -17 8 -20 17 -6 15 -8 15 -16 3 -9 -13 -10 -13 -11 0 -1 8
-1 18 0 23 0 4 -2 6 -6 5 -5 -1 -18 1 -30 6 -15 5 -20 12 -16 23 4 10 2 14 -4
10 -7 -5 -9 0 -6 13 3 11 0 20 -6 20 -5 0 -8 7 -5 15 4 8 -1 17 -10 21 -9 3
-16 17 -16 31 0 13 -4 22 -8 19 -5 -3 -16 8 -26 25 -12 20 -25 29 -44 29 -21
0 -24 2 -12 10 12 8 10 10 -8 10 -16 0 -21 4 -16 13 5 8 2 8 -9 -2 -9 -7 -17
-9 -17 -4 0 5 -12 10 -27 11 -15 1 -30 8 -35 15 -6 9 -8 8 -9 -3 0 -10 -3 -8
-9 5 -5 11 -9 14 -9 8 -1 -7 -6 -13 -12 -13 -5 0 -7 5 -3 12 5 7 3 8 -6 3 -7
-4 -16 -2 -21 6 -6 10 -9 11 -9 2 0 -7 -5 -13 -11 -13 -5 0 -7 5 -4 10 3 6 -3
10 -15 10 -12 0 -18 5 -15 10 9 14 -8 13 -23 -2 -9 -9 -12 -8 -12 6 0 9 -4 14
-10 11 -5 -3 -10 -1 -10 5 0 7 -6 10 -14 7 -17 -7 -40 16 -28 27 4 4 3 6 -3 5
-5 -2 -21 1 -34 5 -18 6 -21 10 -10 17 10 6 8 9 -8 9 -14 0 -23 6 -23 15 0 10
-7 15 -17 13 -12 -2 -17 3 -15 15 3 20 1 21 -15 2z"/>
<path d="M1084 259 c-4 -7 -3 -9 4 -5 5 3 13 0 15 -6 4 -9 6 -10 6 -1 1 17
-16 25 -25 12z"/>
</g>
</svg>
