<!-- icon666.com - MILLIONS vector ICONS FREE --><svg id="Capa_1" enable-background="new 0 0 512 512" viewBox="0 0 512 512" xmlns="http://www.w3.org/2000/svg"><g><path d="m459.479 414.224-65.291-65.291 41.277-41.278-21.213-21.213-25.905 25.905-29.695-31.727-29.35 27.469 31.652 31.652-21.213 21.213-32.353-32.353-29.437 27.552 34.396 32.194-25.905 25.905 21.213 21.213 41.278-41.277 65.291 65.291z"></path><path d="m429.689 486.439 7.595 25.561h74.716v-74.716l-25.561-7.595z"></path><path d="m183.399 204.612-52.349-52.349 21.213-21.213 51.647 51.647 31.545-33.702-139.455-148.995h-96v96l151.946 142.216z"></path><path d="m416 0-292.347 312.347-25.904-25.904-21.213 21.213 41.277 41.277-65.291 65.291 45.255 45.255 65.291-65.291 41.278 41.278 21.213-21.213-25.905-25.905 312.346-292.348v-96zm-243.74 360.953-21.213-21.213 208.69-208.69 21.213 21.213z"></path><path d="m0 437.284v74.716h74.716l7.595-25.561-56.75-56.75z"></path></g></svg>