<svg xmlns="http://www.w3.org/2000/svg" version="1.1" xmlns:xlink="http://www.w3.org/1999/xlink" width="512" height="512" x="0" y="0" viewBox="0 0 283.465 283.465" style="enable-background:new 0 0 512 512" xml:space="preserve" class=""><g><g fill-rule="evenodd" clip-rule="evenodd"><path d="M190.907 256.672v-81.805L18.858 150.605v75.679zM264.607 222.913v-81.264l-66.966 32.403v81.264zM65.341 72.417a3.366 3.366 0 0 1 1.444 2.318l.816 5.806 49.017 6.373 16.353-6.494c.248-.1.512-.169.781-.206l67.036-9.267 14.305-31.67L49.648 26.3 34.692 51.624z" fill="" opacity="1" data-original="#000000" class=""></path><path d="m203.549 77.363-68.473 9.465-16.784 6.668a3.34 3.34 0 0 1-1.677.21l-19.127-2.487 10.4 21.698 154.39 19.261-42.057-87.896-14.062 31.133a3.37 3.37 0 0 1-2.61 1.948zM193.729 168.463l62.524-30.252-150.255-18.745-76.06 25.902z" fill="" opacity="1" data-original="#000000" class=""></path></g></g></svg>
