<!-- icon666.com - MILLIONS vector ICONS FREE --><svg id="Layer_1" enable-background="new 0 0 54 54" viewBox="0 0 54 54" xmlns="http://www.w3.org/2000/svg"><g><path d="m27 27c1.6542969 0 3-1.3457031 3-3s-1.3457031-3-3-3-3 1.3457031-3 3 1.3457031 3 3 3zm0-4c.5517578 0 1 .4487305 1 1s-.4482422 1-1 1-1-.4487305-1-1 .4482422-1 1-1z"></path><path d="m53 8v-2c0-.7369995-.4052124-1.3748169-1-1.7217407v-1.2782593c0-1.1030273-.8974609-2-2-2h-46c-1.1025391 0-2 .8969727-2 2v1.2782593c-.5947876.3469238-1 .9847412-1 1.7217407v2c0 .802002.477356 1.4902344 1.1600952 1.8087769l2.5825806 11.1912231h-.7426758c-1.6542969 0-3 1.3457031-3 3v26c0 1.6542969 1.3457031 3 3 3h46c1.6542969 0 3-1.3457031 3-3v-26c0-1.6542969-1.3457031-3-3-3h-.7426758l2.5825806-11.1912231c.6827392-.3185425 1.1600952-1.0067749 1.1600952-1.8087769zm-50 0v-2h48l.0009766 2zm47-5v1h-46v-1zm1 21v26c0 .5512695-.4482422 1-1 1h-46c-.5517578 0-1-.4487305-1-1v-26c0-.5512695.4482422-1 1-1h16v2h-14c-.5527344 0-1 .4477539-1 1v22c0 .5522461.4472656 1 1 1h42c.5527344 0 1-.4477539 1-1v-22c0-.5522461-.4472656-1-1-1h-14v-2h16c.5517578 0 1 .4487305 1 1zm-36-3v-3.4648438l1-.666687v4.1315308zm-.5289917-5.5158081-.4396362-1.0991211 1.0990601.6594849zm-2.4711304-.791626.5230713 1.3074341h-1.0458984zm-.7799072 3.3074341h1.7800293v3h-1.1802368zm16.9333496-1 .0310059-.2171631 1.6444092-.3288574-.3639527.5460205zm.3309937-2.3167725.2230835-1.5616455 1.2640381 1.2642822zm-1.9892578-.2218017-.7642822-.5094604.9375-.703186zm-1.4950562 1.4070434 1.1815186.7877197-.0491333.3438111h-1.1323853zm7 3.1315308v7c0 1.6542969-1.3457031 3-3 3h-4c-1.6542969 0-3-1.3457031-3-3v-7zm-7 12h4c2.4144287 0 4.4342651-1.7207031 4.8989258-4h13.1010742v5h-40v-5h13.1010742c.4646607 2.2792969 2.4844971 4 4.8989258 4zm22 9h-40v-6h40zm-40 2h40v5h-40zm33.27948-21 .5634155-2.2600098 2.5263062-1.010498-1.0896607 3.2705078zm.9989624-4.5883179.3884888-2.3305664 1.5534058 1.5537109zm-1.9431763-.4908447-.8128662-.8126221 1.0826416-.8120117zm-1.6279297 1.2005615 1.1855469 1.1855469-.6732788 2.6930542h-1.0662842zm6.6796875 3.8786011 1.5612183-4.6835938c.1201172-.359375.0263672-.7558594-.2412109-1.0234375l-4-4c-.3515625-.3520508-.9101562-.3911133-1.3066406-.0927734l-4 3c-.2128906.1586914-.3525391.3959961-.390625.6582031l-.8773804 6.1416016h-1.1323853v-3c0-.5522461-.4472656-1-1-1h-1.1315308l.963562-1.4453125c.2646484-.3964844.2119141-.9248047-.125-1.2617188l-4-4c-.3515625-.3520508-.9091797-.3911133-1.3066406-.0927734l-4 3c-.2519531.1884766-.4003906.4848633-.4003906.7998047v3h-2c-.5527344 0-1 .4477539-1 1v3h-2v-6c0-.3510742-.1845703-.6767578-.4853516-.8574219l-5-3c-.2509766-.1513672-.5546875-.1845703-.8339844-.090332-.2773438.09375-.5.3041992-.609375.5761719l-2 5c-.0722656.1801758-.0898438.3774414-.0517578.5678711l.7607422 3.8037109h-2.984497l-2.5384522-11h45.4853516l-2.5384521 11z"></path></g></svg>