<!-- icon666.com - MILLIONS vector ICONS FREE --><svg id="Capa_1" enable-background="new 0 0 511.88 511.88" viewBox="0 0 511.88 511.88" xmlns="http://www.w3.org/2000/svg"><g><path d="m511.88 263.47c0-16.44-13.327-30.06-30.12-30.06v-218.41c0-8.284-6.716-15-15-15h-421.64c-8.284 0-15 6.716-15 15 0 228.649.04 218.41-.06 218.41-16.575 0-30.06 13.485-30.06 30.06v218.35c0 16.575 13.485 30.06 30.06 30.06h451.76c16.575 0 30.06-13.485 30.06-30.06 0-26.165 0-186.677 0-218.35zm-255.94 30.176c-8.284 0-15 6.716-15 15v42.667c-17.593-6.201-30.24-22.979-30.24-42.664v-45.24h90.48v45.24c0 19.684-12.647 36.462-30.24 42.664v-42.667c0-8.284-6.716-15-15-15zm135.59-60.236c-9.758 0-65.178 0-77.682 0l36.798-47.8c4.259-5.532 4.138-13.27-.291-18.666l-33.64-40.99c-2.849-3.472-7.104-5.484-11.595-5.484-108.169 0-80.973 0-98.36 0-4.491 0-8.746 2.012-11.595 5.484l-33.64 40.99c-4.429 5.396-4.549 13.134-.291 18.666l36.798 47.8c-12.603 0-68.818 0-77.682 0v-143.18h271.18zm-155.638 0-43.612-56.652 21.575-26.289h27.085v82.94h-5.048zm35.048 0v-82.94h27.085l21.575 26.289-43.612 56.652h-5.048zm-210.82-203.41h391.64v203.41h-30.23v-158.18c0-8.284-6.716-15-15-15h-301.18c-8.284 0-15 6.716-15 15v158.18h-30.23zm-30.12 451.82.008-30.174h150.638c8.284 0 15-6.716 15-15s-6.716-15-15-15h-150.629l.043-158.236h150.64v45.24c0 41.482 33.752 75.23 75.24 75.23s75.24-33.748 75.24-75.23v-45.237l150.698.027c0 8.203-.039 148.128-.042 158.207h-150.602c-8.284 0-15 6.716-15 15s6.716 15 15 15h150.594l-.008 30.234z"></path></g></svg>