<svg xmlns="http://www.w3.org/2000/svg" version="1.1" xmlns:xlink="http://www.w3.org/1999/xlink" width="512" height="512" x="0" y="0" viewBox="0 0 512 512" style="enable-background:new 0 0 512 512" xml:space="preserve" class=""><g><g data-name="ARROW 48"><path d="M41.29 288.88 256 74.16l214.71 214.72a24 24 0 0 0 33.94-33.95L273 23.25a24 24 0 0 0-33.94 0L7.35 254.93a24 24 0 0 0 33.94 33.95z" fill="" opacity="1" data-original="#000000"></path><path d="M41.29 488.75 256 274l214.71 214.75a24 24 0 0 0 33.94-33.94L273 223.12a24 24 0 0 0-33.94 0L7.35 454.81a24 24 0 0 0 33.94 33.94z" fill="#" opacity="1" data-original="#000000"></path></g></g></svg>
