<svg xmlns="http://www.w3.org/2000/svg" version="1.1" xmlns:xlink="http://www.w3.org/1999/xlink" width="512" height="512" x="0" y="0" viewBox="0 0 512 512" style="enable-background:new 0 0 512 512" xml:space="preserve" class=""><g><path d="M397.943 83.923h-11.735v-18.6A65.393 65.393 0 0 0 320.889 0H114.056a65.393 65.393 0 0 0-65.319 65.319v297.439a65.393 65.393 0 0 0 65.319 65.319h11.736v18.6A65.393 65.393 0 0 0 191.111 512h206.832a65.393 65.393 0 0 0 65.32-65.319V149.242a65.393 65.393 0 0 0-65.32-65.319zM114.056 392.077a29.353 29.353 0 0 1-29.319-29.319V65.319A29.352 29.352 0 0 1 114.056 36h206.833a29.352 29.352 0 0 1 29.319 29.319v18.6h-159.1a65.393 65.393 0 0 0-65.319 65.319v242.839zm313.207 54.6A29.352 29.352 0 0 1 397.943 476H191.111a29.352 29.352 0 0 1-29.319-29.319V149.242a29.352 29.352 0 0 1 29.319-29.319h206.832a29.353 29.353 0 0 1 29.32 29.319z" fill="" opacity="1" data-original="#000000" class=""></path></g></svg>
