<!-- icon666.com - MILLIONS vector ICONS FREE --><svg viewBox="0 0 511.99925 511" xmlns="http://www.w3.org/2000/svg"><path d="m232.960938 225.25 6.398437-19.199219c-2.957031-.519531-5.957031-.773437-8.957031-.761719-42.417969 0-76.800782 34.386719-76.800782 76.800782 0 42.417968 34.382813 76.800781 76.800782 76.800781 42.414062 0 76.796875-34.382813 76.796875-76.800781.011719-3.003906-.246094-6-.765625-8.960938l-19.199219 6.402344-29.699219 29.695312c-14.984375 14.988282-39.285156 14.988282-54.269531 0-14.988281-14.988281-14.988281-39.285156 0-54.273437zm0 0"></path><path d="m249.34375 176.109375 7.679688-11.265625 29.699218-25.601562c-17.921875-7.121094-37.035156-10.773438-56.320312-10.75-84.832032 0-153.601563 68.769531-153.601563 153.601562 0 84.828125 68.769531 153.597656 153.601563 153.597656 84.828125 0 153.597656-68.769531 153.597656-153.597656.019531-19.289062-3.628906-38.398438-10.75-56.320312l-25.601562 29.695312-11.261719 7.679688-5.121094 1.792968c1.03125 5.65625 1.542969 11.398438 1.535156 17.152344 0 56.550781-45.847656 102.398438-102.398437 102.398438-56.554688 0-102.402344-45.847657-102.402344-102.398438 0-56.554688 45.847656-102.402344 102.402344-102.402344 5.75-.007812 11.492187.503906 17.148437 1.535156zm0 0"></path><path d="m413.441406 179.4375-21.761718 25.085938c11.816406 24.152343 17.945312 50.683593 17.921874 77.570312 0 98.96875-80.230468 179.199219-179.199218 179.199219-98.972656 0-179.203125-80.230469-179.203125-179.199219 0-98.972656 80.230469-179.203125 179.203125-179.203125 26.882812-.023437 53.417968 6.105469 77.566406 17.921875l25.089844-21.761719-3.585938-24.832031c-30.886718-14.929688-64.765625-22.636719-99.070312-22.527344-127.25 0-230.402344 103.152344-230.402344 230.402344 0 127.246094 103.152344 230.398438 230.402344 230.398438 127.246094 0 230.398437-103.152344 230.398437-230.398438.109375-34.308594-7.59375-68.1875-22.527343-99.074219zm0 0"></path><path d="m272.566406 187.5-17.152344 51.464844-34.0625 34.066406c-5.019531 4.976562-5.054687 13.082031-.078124 18.101562 4.976562 5.019532 13.082031 5.054688 18.101562.078126.027344-.027344.050781-.050782.078125-.078126l34.066406-34.066406 51.441407-17.152344 5.664062-3.792968 122.699219-142.023438-34.945313-34.945312-142.042968 122.714844c-1.28125 1.921874-2.488282 3.726562-3.769532 5.632812zm0 0"></path><path d="m508.257812 112.839844c-1.269531-1.265625-2.789062-2.25-4.457031-2.902344l-26.109375-10.042969-46.90625 56.195313 39.445313 5.628906c3.992187.566406 8.019531-.773438 10.871093-3.621094l27.15625-27.152344c4.988282-5.003906 4.988282-13.101562 0-18.101562zm0 0"></path><path d="m412.605469 34.808594-10.042969-26.109375c-.648438-1.667969-1.636719-3.1875-2.898438-4.457031-5.003906-4.988282-13.101562-4.988282-18.105468 0l-27.152344 27.152343c-2.847656 2.855469-4.1875 6.882813-3.621094 10.875l5.632813 39.441407zm0 0"></path></svg>