<svg xmlns="http://www.w3.org/2000/svg" version="1.1" xmlns:xlink="http://www.w3.org/1999/xlink" width="512" height="512" x="0" y="0" viewBox="0 0 100 100" style="enable-background:new 0 0 512 512" xml:space="preserve"><g><path d="M94.133 35.404c-1.829 0-3.335 1.507-3.335 3.367v24.026c-.031.892.338 1.722.968 2.368.661.615 1.507.968 2.367.968 1.86 0 3.367-1.522 3.367-3.351V38.771a3.356 3.356 0 0 0-3.367-3.367zM81.528 19.648a3.346 3.346 0 0 0-3.335 3.35v53.988c0 1.844 1.506 3.351 3.335 3.351a3.336 3.336 0 0 0 3.336-3.351V22.999a3.326 3.326 0 0 0-3.336-3.351zM68.908 3.891c-1.83 0-3.336 1.507-3.336 3.351v85.516c0 1.844 1.506 3.35 3.336 3.35a3.336 3.336 0 0 0 3.336-3.35V7.242a3.326 3.326 0 0 0-3.336-3.35zM56.303 14.114c-1.86 0-3.336 1.522-3.336 3.366v65.01c0 1.844 1.476 3.366 3.336 3.366s3.366-1.522 3.366-3.367V17.48a3.375 3.375 0 0 0-3.366-3.366zM43.697 28.118c-1.829 0-3.335 1.506-3.335 3.35v37.048a3.353 3.353 0 0 0 3.335 3.336c1.86 0 3.367-1.507 3.367-3.336V31.469a3.362 3.362 0 0 0-3.367-3.351zM31.092 7.027c-1.83 0-3.336 1.507-3.336 3.351v79.213c0 1.845 1.507 3.351 3.336 3.351 1.83 0 3.367-1.506 3.367-3.351V10.378c0-.891-.354-1.721-.984-2.352a3.39 3.39 0 0 0-2.383-.999zM18.502 22.784c-1.86 0-3.397 1.506-3.397 3.366v47.67c0 1.86 1.537 3.366 3.397 3.366 1.799 0 3.336-1.507 3.336-3.367V26.15c0-1.86-1.537-3.366-3.336-3.366zM5.867 35.404A3.375 3.375 0 0 0 2.5 38.771v22.443c0 1.845 1.537 3.366 3.367 3.366a3.375 3.375 0 0 0 3.366-3.366V38.771c0-.907-.354-1.737-.984-2.368s-1.476-.999-2.382-.999z" fill="" opacity="1" data-original="#000000"></path></g></svg>
