<!-- icon666.com - MILLIONS vector ICONS FREE --><svg version="1.1" id="Capa_1" xmlns="http://www.w3.org/2000/svg" xmlns:xlink="http://www.w3.org/1999/xlink" x="0px" y="0px" viewBox="0 0 512 512" style="enable-background:new 0 0 512 512;" xml:space="preserve"><g><g><path d="M256,150c-58.449,0-106,47.551-106,106c0,58.449,47.551,106,106,106c58.449,0,106-47.551,106-106 C362,197.551,314.449,150,256,150z M301,256c0,6.939-1.581,13.514-4.398,19.389l23.037,23.037l-21.213,21.213l-23.037-23.037 C269.514,299.419,262.939,301,256,301c-6.939,0-13.514-1.581-19.389-4.398l-23.037,23.037l-21.213-21.213l23.037-23.037 C212.581,269.514,211,262.939,211,256c0-6.939,1.581-13.514,4.398-19.389l-23.037-23.037l21.213-21.213l23.037,23.037 C242.486,212.581,249.061,211,256,211c6.939,0,13.514,1.581,19.389,4.398l23.037-23.037l21.213,21.213l-23.037,23.037 C299.419,242.486,301,249.061,301,256z"></path></g></g><g><g><path d="M256,241c-8.271,0-15,6.729-15,15s6.729,15,15,15s15-6.729,15-15S264.271,241,256,241z"></path></g></g><g><g><path d="M92.308,178.813C83.247,197.951,77.447,218.919,75.626,241h45.205c1.536-13.933,5.185-27.238,10.619-39.588 L92.308,178.813z"></path></g></g><g><g><path d="M310.588,380.55c-12.35,5.434-25.655,9.083-39.588,10.619v45.205c22.081-1.82,43.049-7.621,62.187-16.682L310.588,380.55z "></path></g></g><g><g><path d="M256,0C114.615,0,0,114.615,0,256s114.615,256,256,256s256-114.615,256-256S397.385,0,256,0z M256,467 c-116.346,0-211-94.654-211-211S139.654,45,256,45s211,94.654,211,211S372.346,467,256,467z"></path></g></g><g><g><path d="M120.831,271H75.626c1.82,22.081,7.621,43.049,16.682,62.187l39.142-22.599C126.016,298.238,122.367,284.933,120.831,271z "></path></g></g><g><g><path d="M201.412,380.55l-22.599,39.142c19.138,9.061,40.106,14.862,62.187,16.682v-45.205 C227.067,389.633,213.762,385.984,201.412,380.55z"></path></g></g><g><g><path d="M178.813,92.308l22.599,39.142c12.35-5.434,25.655-9.083,39.588-10.619V75.626 C218.919,77.446,197.951,83.247,178.813,92.308z"></path></g></g><g><g><path d="M152.858,107.351c-17.734,12.343-33.163,27.772-45.506,45.506l39.138,22.596c8.145-11.045,17.918-20.818,28.964-28.964 L152.858,107.351z"></path></g></g><g><g><path d="M146.489,336.546l-39.138,22.596c12.343,17.734,27.772,33.163,45.506,45.506l22.596-39.138 C164.408,357.365,154.635,347.592,146.489,336.546z"></path></g></g><g><g><path d="M365.51,336.547c-8.145,11.045-17.918,20.818-28.964,28.964l22.596,39.138c17.734-12.343,33.163-27.772,45.506-45.506 L365.51,336.547z"></path></g></g><g><g><path d="M271,75.626v45.205c13.933,1.536,27.238,5.185,39.588,10.619l22.599-39.142C314.049,83.247,293.081,77.447,271,75.626z"></path></g></g><g><g><path d="M359.143,107.352l-22.596,39.138c11.045,8.145,20.818,17.918,28.964,28.964l39.138-22.596 C392.306,135.124,376.877,119.695,359.143,107.352z"></path></g></g><g><g><path d="M391.169,271c-1.536,13.933-5.185,27.238-10.619,39.588l39.142,22.599c9.061-19.138,14.862-40.106,16.682-62.187H391.169z "></path></g></g><g><g><path d="M419.692,178.813l-39.142,22.599c5.434,12.35,9.083,25.655,10.619,39.588h45.205 C434.554,218.919,428.753,197.951,419.692,178.813z"></path></g></g></svg>