<!-- icon666.com - MILLIONS vector ICONS FREE --><svg version="1.1" id="Capa_1" xmlns="http://www.w3.org/2000/svg" xmlns:xlink="http://www.w3.org/1999/xlink" x="0px" y="0px" viewBox="0 0 426.667 426.667" style="enable-background:new 0 0 426.667 426.667;" xml:space="preserve"><g><g><g><circle cx="213.333" cy="213.333" r="42.667"></circle><path d="M91.733,91.733L61.867,61.867C21.333,102.4,0,155.733,0,213.333S21.333,324.267,61.867,364.8l29.867-29.867 c-32-34.133-49.067-76.8-49.067-121.6S59.733,125.867,91.733,91.733z"></path><path d="M364.8,61.867l-29.867,29.867c32,34.133,49.067,76.8,49.067,121.6s-17.067,87.467-49.067,121.6L364.8,364.8 c40.533-40.533,61.867-93.867,61.867-151.467S405.333,102.4,364.8,61.867z"></path><path d="M153.6,153.6l-29.867-29.867c-25.6,23.467-38.4,55.467-38.4,89.6s12.8,66.133,38.4,89.6l29.867-29.867 C136.533,258.133,128,236.8,128,213.333S136.533,168.533,153.6,153.6z"></path><path d="M302.933,123.733L273.067,153.6c17.067,14.933,25.6,36.267,25.6,59.733c0,21.333-8.533,42.667-25.6,59.733l29.867,29.867 c25.6-23.467,38.4-55.467,38.4-89.6S328.533,147.2,302.933,123.733z"></path></g></g></g></svg>