<svg width="78" height="81" xmlns="http://www.w3.org/2000/svg">
 <!-- Created with Method Draw - http://github.com/duopixel/Method-Draw/ -->
 <g>
  <title>background</title>
  <rect fill="none" id="canvas_background" height="83" width="80" y="-1" x="-1"/>
 </g>
 <g>
  <title>Layer 1</title>
  <g stroke="null" id="svg_8">
   <g stroke="null" transform="matrix(0.19893972776581098,0,0,0.19893972776581098,-1633.5285603463915,-1064.8859551237058) " id="svg_3">
    <path fill="#36282d" stroke="null" id="svg_1" d="m8221.584731,5636.123488c-0.93,-2.5 2.3,-4.45 4.12,-2.47c22.33,24.35 93.29,91.3 187.18,76.59c42.99,-6.73 83,-27.51 107.46,-63.73c13.18,-19.51 22.79,-41.64 20.36,-65.42c-1.5,-14.66 -5.97,-29.04 -13.14,-41.98c-13.02,-23.52 -36.71,-44.69 -62.44,-53.91c0,0 -32.16,-11.52 -43.02,10.7c-10.86,22.22 9.19,36.61 17.12,39.08c6.65,2.07 22.12,0.38 30.38,-11.62c1.54,-2.23 5.09,-1.32 5.29,1.37c1.1,14.32 -0.99,41.74 -28.58,60.44c-38.84,26.33 -73.5,7.82 -83.11,2.06c-32.61,-19.55 -43.66,-66.59 -18.88,-96.22c0.89,-1.07 -0.23,-2.61 -1.54,-2.12c-10.65,3.98 -36.09,16.06 -53.09,45.22c-1.36,2.33 -4.95,1.56 -5.25,-1.12c-1.88,-16.99 -0.11,-57.6 49.51,-93.87c64.66,-47.26 152.24,-13.65 152.44,-13.58c0,0 0,0 0,0c0.19,0.06 70.63,21.49 105.25,96.68c34.66,75.29 -22.14,152.22 -47.61,176.49c-25.48,24.27 -78.93,69.53 -166.22,57.18c-80.31,-11.34 -139.78,-75.33 -156.23,-119.77z"/>
    <path fill="#36282d" stroke="null" id="svg_2" d="m8522.214731,5569.593488c1.29,-1.99 4.38,-1.31 4.68,1.03c2.69,20.92 3.17,84.46 -82.65,114.12c-76.82,26.55 -181.63,-7.58 -217.66,-82.48c-10.18,-21.16 -15.04,-44.63 -15.39,-67.98c-0.53,-36.01 9.3,-67.03 30.81,-95.85c22.44,-30.05 52.84,-53.68 86.97,-69.65c63.14,-29.54 148,-16.69 201.45,26.8c22.81,18.56 42.48,43.68 54.18,70.42c1.12,2.56 -2.13,4.78 -4.14,2.82c-21.8,-21.26 -82.4,-72.89 -156.69,-72.89c-93.55,0 -136.57,68.29 -136.57,68.29s-50.95,74.05 19.21,135.35c67.99,59.39 177.51,29.2 215.8,-29.98z"/>
   </g>
  </g>
 </g>
</svg>
