<!-- icon666.com - MILLIONS vector ICONS FREE --><svg viewBox="0 0 32 32" xmlns="http://www.w3.org/2000/svg"><g id="Layer_2" data-name="Layer 2"><path d="m26.62 15.86-10-7.86a1 1 0 0 0 -1.24 0l-10 7.9a1 1 0 0 0 -.38.79v10.6a1 1 0 0 0 .58.91 1 1 0 0 0 1.07-.2l9.35-8 9.35 8a1.05 1.05 0 0 0 .65.23 1 1 0 0 0 .42-.09 1 1 0 0 0 .58-.91v-10.58a1 1 0 0 0 -.38-.79zm-10.62-5.86 9 7.11v2.79l-8.37-6.7a1 1 0 0 0 -1.25 0l-8.38 6.72v-2.79zm.65 8a1 1 0 0 0 -1.3 0l-8.35 7.09v-2.61l9-7.2 9 7.2v2.61z"></path><path d="m6.63 13.53 9.37-7.53 9.38 7.5a1 1 0 0 0 .62.22 1 1 0 0 0 .78-.38 1 1 0 0 0 -.15-1.4l-10-8a1 1 0 0 0 -1.25 0l-10 8a1 1 0 0 0 -.16 1.4 1 1 0 0 0 1.41.19z"></path></g></svg>