<svg xmlns="http://www.w3.org/2000/svg" version="1.1" xmlns:xlink="http://www.w3.org/1999/xlink" width="512" height="512" x="0" y="0" viewBox="0 0 48 48" style="enable-background:new 0 0 512 512" xml:space="preserve" class=""><g><g data-name="Wallet without money"><path d="M6 10a3 3 0 0 1-2.12-5.13C5.13 3.65 3.86 4 34 4a1 1 0 0 1 1 1v5zM45 23c-9 0-10.58-.48-12.54 1.46A5 5 0 0 0 36 33h9a2 2 0 0 0 2-2v-6a2 2 0 0 0-2-2zm-8.08 5.38a1 1 0 0 1-1.63.33 1 1 0 0 1 .15-1.54 1 1 0 0 1 1.48 1.21z" fill="" opacity="1" data-original="#000000" class=""></path><path d="M29 28a7 7 0 0 1 7-7h7v-7a2 2 0 0 0-2-2H5a4 4 0 0 1-4-4v32a4 4 0 0 0 4 4h36a2 2 0 0 0 2-2v-7h-7a7 7 0 0 1-7-7z" fill="" opacity="1" data-original="#000000" class=""></path></g></g></svg>
